Coordinates
version=1
nRows=7
nColumns=40
inDegrees=yes

Units are S.I. units (second, meters, Newtons, ...)
If the header above contains a line with 'inDegrees', this indicates whether rotational values are in degrees (yes) or radians (no).

endheader
time	pelvis_tilt	pelvis_list	pelvis_rotation	pelvis_tx	pelvis_ty	pelvis_tz	hip_flexion_r	hip_adduction_r	hip_rotation_r	knee_angle_r	knee_angle_r_beta	ankle_angle_r	subtalar_angle_r	mtp_angle_r	hip_flexion_l	hip_adduction_l	hip_rotation_l	knee_angle_l	knee_angle_l_beta	ankle_angle_l	subtalar_angle_l	mtp_angle_l	lumbar_extension	lumbar_bending	lumbar_rotation	arm_flex_r	arm_add_r	arm_rot_r	elbow_flex_r	pro_sup_r	wrist_flex_r	wrist_dev_r	arm_flex_l	arm_add_l	arm_rot_l	elbow_flex_l	pro_sup_l	wrist_flex_l	wrist_dev_l
      4.15000000	    -29.83787782	      3.43826467	     -0.74394917	     -0.37508467	      0.76053468	     -1.13880106	     14.54100995	     -3.89249669	     16.11445051	     75.71709160	      1.32151255	    -10.85134728	      0.00000000	      0.00000000	     83.06446252	      5.28248347	     -2.42858075	     87.39384151	      1.52531028	     25.61219891	      0.00000000	      0.00000000	    -11.61401936	     -9.71554663	      7.07693642	     89.96629325	     -2.61034929	     10.04406812	     50.14814571	     75.85064264	      0.00000000	      0.00000000	     89.97374499	     -2.77447633	     13.05097609	     52.48546818	     59.53445152	      0.00000000	      0.00000000
      4.15500000	    -29.82697902	      3.52357807	     -0.69939972	     -0.37511465	      0.76008025	     -1.13891116	     14.49123538	     -3.97381957	     16.10403195	     75.63453184	      1.32007161	    -10.87449116	      0.00000000	      0.00000000	     83.09743486	      5.33902652	     -2.51920621	     87.46699876	      1.52658712	     25.70929233	      0.00000000	      0.00000000	    -11.67116144	     -9.79555519	      7.02317789	     89.96636089	     -2.73264777	     10.47916329	     50.28813769	     72.40784161	      0.00000000	      0.00000000	     89.97371997	     -2.67957036	     12.98305657	     52.50050365	     57.72334825	      0.00000000	      0.00000000
      4.16000000	    -29.97723741	      3.49562450	     -0.72023076	     -0.37546459	      0.75932163	     -1.13880396	     14.66649381	     -3.89331943	     16.06021775	     75.65899563	      1.32049858	    -10.68442719	      0.00000000	      0.00000000	     83.35302366	      5.25833529	     -2.49606356	     87.59149604	      1.52876000	     25.48065175	      0.00000000	      0.00000000	    -11.53315135	     -9.76955515	      7.01819545	     89.96646447	     -2.76748549	     10.72984679	     50.29602279	     69.44534270	      0.00000000	      0.00000000	     89.97378962	     -2.62736047	     12.91881021	     52.48309734	     56.03305756	      0.00000000	      0.00000000
      4.16500000	    -29.85379366	      3.65889318	     -0.70168435	     -0.37535600	      0.75917314	     -1.13892011	     14.50110785	     -4.05072447	     16.04965119	     75.52692291	      1.31819348	    -10.86999073	      0.00000000	      0.00000000	     83.22941478	      5.32024244	     -2.65313807	     87.62720377	      1.52938322	     25.60233854	      0.00000000	      0.00000000	    -11.73216737	     -9.94359127	      7.00370344	     89.96639910	     -2.96223545	     10.86844066	     50.43445321	     67.86354789	      0.00000000	      0.00000000	     89.97378750	     -2.49837082	     12.84267250	     52.53608933	     55.04790431	      0.00000000	      0.00000000
      4.17000000	    -29.90211079	      3.66965720	     -0.66651676	     -0.37550592	      0.75874482	     -1.13895042	     14.52822422	     -4.03570429	     16.00281227	     75.43753679	      1.31663340	    -10.87755353	      0.00000000	      0.00000000	     83.30840568	      5.31559643	     -2.68526846	     87.66101818	      1.52997339	     25.66431163	      0.00000000	      0.00000000	    -11.72333863	     -9.96367892	      6.93659766	     89.96646945	     -3.05019844	     11.11233056	     50.53652266	     65.50007705	      0.00000000	      0.00000000	     89.97377182	     -2.46604167	     12.73862544	     52.60449969	     53.45200785	      0.00000000	      0.00000000
      4.17500000	    -29.88280586	      3.72878463	     -0.61191549	     -0.37554309	      0.75827212	     -1.13891567	     14.43848656	     -4.07836600	     15.90504588	     75.39760621	      1.31593648	    -10.47999483	      0.00000000	      0.00000000	     83.37626971	      5.29922753	     -2.78646700	     87.78622795	      1.53215872	     25.25230028	      0.00000000	      0.00000000	    -11.76593721	    -10.03785827	      6.85749606	     89.96653583	     -3.06238419	     11.22168787	     50.47908640	     63.22482952	      0.00000000	      0.00000000	     89.97384669	     -2.38652872	     12.68287994	     52.50857178	     52.18586797	      0.00000000	      0.00000000
      4.18000000	    -29.91504537	      3.79228765	     -0.60509559	     -0.37559064	      0.75782664	     -1.13895166	     14.49338095	     -4.14431908	     15.80955038	     75.38231912	      1.31566967	    -10.80850622	      0.00000000	      0.00000000	     83.43933970	      5.28964436	     -2.86299193	     87.83785185	      1.53305972	     25.46779338	      0.00000000	      0.00000000	    -11.77143505	    -10.10749984	      6.80406168	     89.96656737	     -3.18672936	     11.36835389	     50.57039175	     62.16280291	      0.00000000	      0.00000000	     89.97386903	     -2.37963883	     12.65130826	     52.57211283	     51.39966308	      0.00000000	      0.00000000
